<?xml version="1.0" encoding="UTF-8" standalone="no"?><!DOCTYPE svg PUBLIC "-//W3C//DTD SVG 1.1//EN" "http://www.w3.org/Graphics/SVG/1.1/DTD/svg11.dtd"><svg width="100%" height="100%" viewBox="0 0 1002 1310" version="1.1" xmlns="http://www.w3.org/2000/svg" xmlns:xlink="http://www.w3.org/1999/xlink" xml:space="preserve" xmlns:serif="http://www.serif.com/" style="fill-rule:evenodd;clip-rule:evenodd;stroke-linejoin:round;stroke-miterlimit:2;"><g><path d="M496.133,502.774c56.551,-223.967 265.538,-222.616 295.101,-222.425c27.335,0.177 2.956,-12.97 -15.796,-32.484c-3.889,-4.047 -37.539,-39.064 -1.043,-70.154c39.677,-33.8 52.039,-15.655 199.689,129.86c49.029,48.32 -8.756,85.063 -43.575,118.013c-67.265,63.656 -114.167,133.336 -159.204,84.832c-49.736,-53.565 67.366,-108.91 36.873,-108.89c-217.957,0.14 -199.222,148.059 -204.434,243.045c-10.781,196.491 -213.786,180.327 -224.661,184.29c-134.214,48.911 -93.224,304.806 111.986,349.807c46.948,10.295 160.698,4.856 162.849,4.481c252.604,-44.046 275.125,-301.965 165.619,-412.71c-101.825,-102.977 -171.033,-37.209 -166.976,-100.956c5.204,-81.762 2.971,-90.776 22.002,-90.412c276.031,5.271 435.823,367.06 240.439,589.438c-134.116,152.645 -290.546,141.182 -327.917,141.158c-331.329,-0.209 -409.875,-252.228 -402.48,-373.368c12.362,-202.502 195.039,-219.463 240.42,-232.42c7.559,0.032 7.554,0.268 8.164,0.034c87.759,-33.631 46.584,-85.989 62.945,-201.136Z" style="fill:#fafafa;"/><path d="M496.133,502.774c-16.361,115.147 24.813,167.505 -62.945,201.136c-0.61,0.234 -0.605,-0.003 -8.164,-0.034c2.29,-3.776 35.47,-24.488 22.906,-88.154c-4.308,-21.828 -23.087,-44.14 -56.76,-44.703c-239.949,-4.015 -304.517,20.022 -365.317,-60.751c-27.023,-35.9 -26.687,-39.347 -25.405,-336.534c0.14,-32.493 -7.939,-87.049 50.138,-140.509c38.137,-35.106 56.64,-32.851 261.491,-32.627c119.226,0.13 203.061,-13.105 248.01,78.238c8.076,16.411 19.191,38.999 14.075,228.199c-0.267,9.86 -3.537,8.609 -104.404,111.912c-18.695,19.147 -21.234,6.712 -21.292,4.964c-1.771,-53.885 9.39,-261.503 -8.059,-282.865c-15.274,-18.699 -28.72,-14.824 -186.67,-14.926c-99.975,-0.065 -126.45,-10.974 -127.379,51.792c-3.625,244.851 -0.507,248.169 15.602,261.585c39.838,33.177 221.234,-21.075 314.674,36.294c3.261,2.002 2.584,1.993 39.498,26.983Z" style="fill:#fafafa;"/></g></svg>